inDegrees=yes
name=ik_Xsens
DataType=double
version=3
OpenSimVersion=4.4-2022-07-23-0e9fedc
endheader
time	pelvis_tilt	pelvis_list	pelvis_rotation	pelvis_tx	pelvis_ty	pelvis_tz	hip_flexion_r	hip_adduction_r	hip_rotation_r	knee_angle_r	knee_angle_r_beta	ankle_angle_r	subtalar_angle_r	mtp_angle_r	hip_flexion_l	hip_adduction_l	hip_rotation_l	knee_angle_l	knee_angle_l_beta	ankle_angle_l	subtalar_angle_l	mtp_angle_l	lumbar_extension	lumbar_bending	lumbar_rotation	arm_flex_r	arm_add_r	arm_rot_r	elbow_flex_r	pro_sup_r	wrist_flex_r	wrist_dev_r	arm_flex_l	arm_add_l	arm_rot_l	elbow_flex_l	pro_sup_l	wrist_flex_l	wrist_dev_l
17.63333333333333	-2.428903668531095e-28	2.942305081712103e-20	-1.371151693349783e-27	-1.725667742835567e-26	0.93	7.323192998392958e-27	-1.586620430251211e-29	-2.830622148254393e-23	0	1.00580487668214e-15	1.755460593668439e-17	-7.144592522896641e-22	6.030546867409045e-23	-5.644387129988253e-19	-2.398181931706812e-23	5.86952390752788e-29	-9.490109278350135e-23	1.006502720367664e-15	1.75668819332403e-17	1.109747287600803e-23	-4.735059992807577e-18	2.45918546798127e-19	-1.062877085063002e-27	-1.220341540479444e-25	4.559330725519118e-25	1.617581209892499	-32.37269277144157	-79.03301540713959	-216.4016867332462	-329.3352096309132	-2.061963324411508e-21	1.174074808260118e-20	-30.23573419165621	-66.07128153378346	-94.34875274827819	-372.8214964866218	-304.4030199483963	5.181731211403966e-21	-1.369566496163617e-21
17.65	-2.995679604358811e-27	1.979437756634391e-16	8.807933243622022e-26	-2.637031454091649e-19	0.93	-2.823316667475751e-19	1.724182147675843e-33	1.397259573559126e-16	0	0	-3.412587234943404e-17	3.223603673029703e-20	-4.07001788377856e-21	-2.057393102317082e-15	1.081207166226791e-15	-3.712517564639212e-27	1.458136215912866e-15	0	-3.417665229280835e-17	-1.658726607993039e-21	2.225702800937114e-15	1.586016212196199e-15	-2.048873036871848e-26	2.785289222859007e-17	-2.221085160793889e-24	1.582314799083548	-32.34783841199663	-78.89470606666745	-216.3470695006962	-329.3473545378855	7.004692915027442e-19	-3.778686224994258e-17	-30.07248367078988	-65.98767679927681	-94.21740606522258	-372.7582797754236	-304.0853279155616	4.18827159798556e-19	5.538705342489289e-17
17.66666666666667	1.059441828862428e-26	1.460855462951189e-19	2.777653689809612e-27	1.439932018863372e-21	0.93	2.854564246132574e-22	2.370750453054284e-34	6.465683053784412e-34	-1.90787619471553e-26	0	-2.665826771620039e-18	3.003097526992775e-21	1.397677047414406e-21	1.599201851290647e-20	-7.768211854290669e-17	-6.480439071913663e-18	2.33898911386557e-18	0	-2.665826716420779e-18	5.560042908283899e-20	1.410791516567996e-22	2.993264868076775e-20	8.933295394639941e-17	3.607636057233292e-16	-1.292314637836684e-16	1.526795813425201	-32.33062670408326	-78.88564482363655	-216.2923369801351	-329.408532912529	-1.139327507358336e-20	2.000082194297864e-21	-29.87196221789478	-65.87611393056896	-94.08179710355651	-372.5930012685912	-304.0654761659306	7.356877549947433e-20	-8.177489122007465e-19
17.68333333333333	0	0	0	0	0.93	0	0	0	0	0	-5.877471754111438e-39	0	0	0	0	0	0	0	-5.877471754111438e-39	0	0	0	0	0	0	1.429182851673563	-32.36653354496085	-79.03443141342353	-216.27638944907	-329.6433431086922	0	0	-29.80146926900379	-65.80627506168354	-94.01624640153716	-372.5613952836858	-304.138343649376	0	0
17.7	2.818216238656636e-28	-8.981048733288458e-22	7.741233006635001e-29	-6.562330684924464e-26	0.93	0	-2.678004996388402e-26	-7.049684650353065e-19	9.996799880536764e-19	0	-5.928752924684459e-18	7.967455438132797e-21	-1.392796883032825e-20	-8.922402608067532e-25	1.234855788345027e-19	2.745502186628386e-19	8.451225613233176e-19	0	-5.928753718578026e-18	-5.022685778038664e-20	1.129672478156271e-20	-1.722961218820302e-22	2.663475720821903e-19	-8.724324204969253e-19	-1.530149116395033e-18	1.372659988591578	-32.44392237847783	-79.22318238362709	-216.3275539774272	-329.8267270096393	-1.698226967628342e-18	6.339455335571849e-22	-29.818737191141	-65.75779350415566	-94.04999771116148	-372.4911218776862	-304.4152978533002	8.039778664315313e-21	8.722130600037854e-22
17.71666666666667	0	0	0	0	0.93	0	0	0	0	0	0	0	0	0	0	0	0	0	0	0	0	0	0	0	0	1.317845360112531	-32.54218985743848	-79.42974688258795	-216.3914584950969	-329.948742936154	0	0	-29.91200026536029	-65.71186618947988	-94.16474435530469	-372.3501746712598	-304.6862643594221	0	0
17.73333333333333	-3.463424796368441e-26	-1.570420347088189e-26	1.728124072941704e-26	-5.306445290368692e-28	0.93	1.405201010578951e-27	-1.457071507425505e-17	5.57204409146118e-19	3.421308093972325e-17	0	-1.006801497693622e-18	-6.008900829959434e-19	-2.116352877859136e-18	1.455957358032061e-19	1.066474685081002e-17	-5.032197805124253e-17	-6.173791582213524e-17	0	-5.199232554154419e-21	6.497785766435399e-20	-4.429802780251961e-18	-1.250093346744898e-20	1.565035572464429e-17	-1.593283585973351e-17	3.578696354957992e-18	1.179929462497284	-32.77852874094955	-79.83637383831665	-216.531137338205	-330.3765506433276	-8.434607357181791e-22	6.354154797046997e-23	-30.1862761336804	-65.66208963216665	-94.42779951050051	-372.2947804521623	-304.6062380291761	-2.166944102165714e-22	-1.476218072702001e-21
17.75	0	0	0	0	0.93	0	0	0	0	0	9.723645076411514e-41	0	0	0	0	0	0	1.096570993386028e-41	9.153107946174138e-42	0	0	0	0	0	0	1.047268494809604	-33.04702243302906	-80.21943338785304	-216.7253781503049	-330.7606846315037	0	0	-30.33795322152192	-65.65935327800642	-94.55098365984105	-372.2702689659054	-304.8517582054359	0	0
